<mxfile host="app.diagrams.net" modified="2024-04-23T17:08:32.713Z" agent="Mozilla/5.0 (Macintosh; Intel Mac OS X 10_15_7) AppleWebKit/537.36 (KHTML, like Gecko) Chrome/124.0.0.0 Safari/537.36" version="22.1.16" etag="HXGpQbOZxICWTCmUkVM8" type="github">
  <diagram name="Page-1" id="jwRRNv2gQt4YEo40WJPx">
    <mxGraphModel>
      <root>
        <mxCell id="0" />
        <mxCell id="1" parent="0" />
      </root>
    </mxGraphModel>
  </diagram>
</mxfile>
